<?xml version="1.0" encoding="UTF-8" standalone="no"?>
<svg
   data-ref="svg"
   class="surface"
   viewBox="-40 -40 700 700"
   width="700"
   height="700"
   version="1.1"
   id="svg189"
   sodipodi:docname="frontenberg-white-square.svg"
   inkscape:export-filename="/Users/tomjn/vvv-local/www/wordpress-one/public_html/wp-content/themes/frontenberg/assets/screenshot-white.png"
   inkscape:export-xdpi="96"
   inkscape:export-ydpi="96"
   inkscape:version="1.2-alpha1 (b6a15bb, 2022-02-23)"
   xmlns:inkscape="http://www.inkscape.org/namespaces/inkscape"
   xmlns:sodipodi="http://sodipodi.sourceforge.net/DTD/sodipodi-0.dtd"
   xmlns="http://www.w3.org/2000/svg"
   xmlns:svg="http://www.w3.org/2000/svg">
  <sodipodi:namedview
     id="namedview191"
     pagecolor="#ffffff"
     bordercolor="#111111"
     borderopacity="1"
     inkscape:pageshadow="0"
     inkscape:pageopacity="0"
     inkscape:pagecheckerboard="true"
     inkscape:deskcolor="#d1d1d1"
     showgrid="false"
     inkscape:zoom="0.57868502"
     inkscape:cx="620.37203"
     inkscape:cy="544.33757"
     inkscape:window-width="1512"
     inkscape:window-height="916"
     inkscape:window-x="0"
     inkscape:window-y="38"
     inkscape:window-maximized="0"
     inkscape:current-layer="svg189"
     showborder="true" />
  <defs
     id="defs135">
    <pattern
       width="3.3333333333333335%"
       height="3.3333333333333335%"
       viewBox="0,0,20,20"
       id="dot-NTk4NDcyNDE2MDc4OTgyOA==">
      <circle
         cx="10"
         cy="10"
         r="1"
         fill="#000"
         id="circle132" />
    </pattern>
  </defs>
  <rect
     data-ref="dots"
     x="0"
     y="0"
     width="600"
     height="600"
     fill="url(#dot-NTk4NDcyNDE2MDc4OTgyOA==)"
     style="display:none"
     id="rect137" />
  <g
     id="g6729"
     transform="translate(-249.99999,-99.999995)">
    <line
       x1="516.34753"
       x2="516.34753"
       y1="289.48819"
       y2="442.86685"
       id="line139"
       style="fill:none;stroke:#ffffff;stroke-width:10.9343;stroke-linecap:round" />
    <line
       x1="516.34753"
       x2="516.34753"
       y1="442.86685"
       y2="508.60056"
       id="line141"
       style="fill:none;stroke:#ffffff;stroke-width:10.9343;stroke-linecap:round" />
    <line
       x1="516.34753"
       x2="516.34753"
       y1="508.60056"
       y2="596.24548"
       id="line143"
       style="fill:none;stroke:#ffffff;stroke-width:10.9343;stroke-linecap:round" />
    <path
       d="m 352.6509,114.19831 a 87.30488,87.644944 0 0 0 -87.30488,87.64494"
       id="path145"
       style="fill:none;stroke:#ffffff;stroke-width:10.9343;stroke-linecap:round" />
    <path
       d="m 767.34908,114.19831 a 87.30488,87.644944 0 0 1 87.30488,87.64494"
       id="path147"
       style="fill:none;stroke:#ffffff;stroke-width:10.9343;stroke-linecap:round" />
    <path
       d="m 767.34908,705.80168 a 87.30488,87.644944 0 0 0 87.30488,-87.64494"
       id="path149"
       style="fill:none;stroke:#ffffff;stroke-width:10.9343;stroke-linecap:round" />
    <path
       d="M 352.6509,705.80168 A 87.30488,87.644944 0 0 1 265.34602,618.15674"
       id="path151"
       style="fill:none;stroke:#ffffff;stroke-width:10.9343;stroke-linecap:round" />
    <path
       d="m 538.17377,377.13314 a 21.82622,21.911236 0 0 0 21.82622,21.91124"
       id="path153"
       style="fill:none;stroke:#ffffff;stroke-width:10.9343;stroke-linecap:round" />
    <path
       d="m 494.52133,377.13314 a 21.82622,21.911236 0 0 1 -21.82622,21.91124"
       id="path155"
       style="fill:none;stroke:#ffffff;stroke-width:10.9343;stroke-linecap:round" />
    <path
       d="m 559.99999,442.86685 a 21.82622,21.911236 0 0 0 -21.82622,21.91124"
       id="path157"
       style="fill:none;stroke:#ffffff;stroke-width:10.9343;stroke-linecap:round" />
    <path
       d="m 789.1753,158.02078 a 21.82622,21.911236 0 0 1 21.82622,21.91124"
       id="path159"
       style="fill:none;stroke:#ffffff;stroke-width:10.9343;stroke-linecap:round" />
    <path
       d="m 330.82468,158.02078 a 21.82622,21.911236 0 0 0 -21.82622,21.91124"
       id="path161"
       style="fill:none;stroke:#ffffff;stroke-width:10.9343;stroke-linecap:round" />
    <path
       d="m 308.99846,640.06798 a 21.82622,21.911236 0 0 0 21.82622,21.91123"
       id="path163"
       style="fill:none;stroke:#ffffff;stroke-width:10.9343;stroke-linecap:round" />
    <path
       d="M 811.00152,640.06798 A 21.82622,21.911236 0 0 1 789.1753,661.97921"
       id="path165"
       style="fill:none;stroke:#ffffff;stroke-width:10.9343;stroke-linecap:round" />
    <path
       d="m 516.34755,596.2455 a 65.47866,65.733708 0 0 1 -65.47866,65.73371"
       id="path167"
       style="fill:none;stroke:#ffffff;stroke-width:10.9343;stroke-linecap:round" />
    <path
       d="M 450.86889,661.97921 A 65.47866,65.733708 0 0 1 385.39023,596.2455"
       id="path169"
       style="fill:none;stroke:#ffffff;stroke-width:10.9343;stroke-linecap:round" />
    <path
       d="m 385.39023,596.2455 a 43.65244,43.822472 0 0 1 43.65244,-43.82247"
       id="path171"
       style="fill:none;stroke:#ffffff;stroke-width:10.9343;stroke-linecap:round" />
    <line
       x1="429.04266"
       x2="560"
       y1="552.42303"
       y2="552.42303"
       id="line173"
       style="fill:none;stroke:#ffffff;stroke-width:10.9343;stroke-linecap:round" />
    <path
       d="m 472.69511,442.86685 a 21.82622,21.911236 0 0 1 21.82622,21.91124"
       id="path175"
       style="fill:none;stroke:#ffffff;stroke-width:10.9343;stroke-linecap:round" />
    <path
       d="M 581.82621,552.42303"
       id="path177"
       style="fill:none;stroke:#ffffff;stroke-width:10.9343;stroke-linecap:round" />
    <line
       x1="516.34753"
       x2="516.34753"
       y1="289.48819"
       y2="245.66573"
       id="line179"
       style="fill:none;stroke:#ffffff;stroke-width:10.9343;stroke-linecap:round" />
    <path
       d="M 516.34755,245.66573 A 109.1311,109.55618 0 0 1 625.47865,136.10955"
       id="path181"
       style="fill:none;stroke:#ffffff;stroke-width:10.9343;stroke-linecap:round" />
    <path
       d="m 625.47865,136.10955 a 109.1311,109.55618 0 0 1 109.1311,109.55618"
       id="path183"
       style="fill:none;stroke:#ffffff;stroke-width:10.9343;stroke-linecap:round" />
    <line
       x1="407.21646"
       x2="625.47864"
       y1="420.95563"
       y2="420.95563"
       id="line185"
       style="fill:none;stroke:#ffffff;stroke-width:10.9343;stroke-linecap:round" />
  </g>
</svg>
