<?xml version="1.0" encoding="UTF-8" standalone="no"?>
<svg
   data-ref="svg"
   class="surface"
   viewBox="-40 -40 1200 900"
   width="1200"
   height="900"
   version="1.1"
   id="svg189"
   sodipodi:docname="frontenberg.svg"
   inkscape:export-filename="/Users/tomjn/vvv-local/www/wordpress-one/public_html/wp-content/themes/frontenberg/screenshot.png"
   inkscape:export-xdpi="96"
   inkscape:export-ydpi="96"
   inkscape:version="1.2-alpha1 (b6a15bb, 2022-02-23)"
   xmlns:inkscape="http://www.inkscape.org/namespaces/inkscape"
   xmlns:sodipodi="http://sodipodi.sourceforge.net/DTD/sodipodi-0.dtd"
   xmlns="http://www.w3.org/2000/svg"
   xmlns:svg="http://www.w3.org/2000/svg">
  <sodipodi:namedview
     id="namedview191"
     pagecolor="#ffffff"
     bordercolor="#111111"
     borderopacity="1"
     inkscape:pageshadow="0"
     inkscape:pageopacity="0"
     inkscape:pagecheckerboard="1"
     inkscape:deskcolor="#d1d1d1"
     showgrid="false"
     inkscape:zoom="0.57868502"
     inkscape:cx="620.37203"
     inkscape:cy="445.83839"
     inkscape:window-width="1512"
     inkscape:window-height="916"
     inkscape:window-x="-1"
     inkscape:window-y="38"
     inkscape:window-maximized="0"
     inkscape:current-layer="svg189" />
  <defs
     id="defs135">
    <pattern
       width="3.3333333333333335%"
       height="3.3333333333333335%"
       viewBox="0,0,20,20"
       id="dot-NTk4NDcyNDE2MDc4OTgyOA==">
      <circle
         cx="10"
         cy="10"
         r="1"
         fill="#000"
         id="circle132" />
    </pattern>
  </defs>
  <rect
     data-ref="dots"
     x="0"
     y="0"
     width="600"
     height="600"
     fill="url(#dot-NTk4NDcyNDE2MDc4OTgyOA==)"
     style="display:none"
     id="rect137" />
  <g
     id="g4456"
     transform="matrix(0.75079759,0,0,0.75079759,139.55335,102.17299)">
    <g
       id="g721"
       transform="matrix(1.4535356,0,0,1.4591973,123.93932,-27.75919)">
      <line
         x1="260"
         x2="260"
         y1="190"
         y2="330"
         id="line139"
         style="fill:none;stroke:#000000;stroke-width:10;stroke-linecap:round" />
      <line
         x1="260"
         x2="260"
         y1="330"
         y2="390"
         id="line141"
         style="fill:none;stroke:#000000;stroke-width:10;stroke-linecap:round" />
      <line
         x1="260"
         x2="260"
         y1="390"
         y2="470"
         id="line143"
         style="fill:none;stroke:#000000;stroke-width:10;stroke-linecap:round" />
      <path
         d="M 110,30 A 80,80 0 0 0 30,110"
         id="path145"
         style="fill:none;stroke:#000000;stroke-width:10;stroke-linecap:round" />
      <path
         d="m 490,30 a 80,80 0 0 1 80,80"
         id="path147"
         style="fill:none;stroke:#000000;stroke-width:10;stroke-linecap:round" />
      <path
         d="m 490,570 a 80,80 0 0 0 80,-80"
         id="path149"
         style="fill:none;stroke:#000000;stroke-width:10;stroke-linecap:round" />
      <path
         d="M 110,570 A 80,80 0 0 1 30,490"
         id="path151"
         style="fill:none;stroke:#000000;stroke-width:10;stroke-linecap:round" />
      <path
         d="m 280,270 a 20,20 0 0 0 20,20"
         id="path153"
         style="fill:none;stroke:#000000;stroke-width:10;stroke-linecap:round" />
      <path
         d="m 240,270 a 20,20 0 0 1 -20,20"
         id="path155"
         style="fill:none;stroke:#000000;stroke-width:10;stroke-linecap:round" />
      <path
         d="m 300,330 a 20,20 0 0 0 -20,20"
         id="path157"
         style="fill:none;stroke:#000000;stroke-width:10;stroke-linecap:round" />
      <path
         d="m 510,70 a 20,20 0 0 1 20,20"
         id="path159"
         style="fill:none;stroke:#000000;stroke-width:10;stroke-linecap:round" />
      <path
         d="M 90,70 A 20,20 0 0 0 70,90"
         id="path161"
         style="fill:none;stroke:#000000;stroke-width:10;stroke-linecap:round" />
      <path
         d="m 70,510 a 20,20 0 0 0 20,20"
         id="path163"
         style="fill:none;stroke:#000000;stroke-width:10;stroke-linecap:round" />
      <path
         d="m 530,510 a 20,20 0 0 1 -20,20"
         id="path165"
         style="fill:none;stroke:#000000;stroke-width:10;stroke-linecap:round" />
      <path
         d="m 260,470 a 60,60 0 0 1 -60,60"
         id="path167"
         style="fill:none;stroke:#000000;stroke-width:10;stroke-linecap:round" />
      <path
         d="M 200,530 A 60,60 0 0 1 140,470"
         id="path169"
         style="fill:none;stroke:#000000;stroke-width:10;stroke-linecap:round" />
      <path
         d="m 140,470 a 40,40 0 0 1 40,-40"
         id="path171"
         style="fill:none;stroke:#000000;stroke-width:10;stroke-linecap:round" />
      <line
         x1="180"
         x2="300"
         y1="430"
         y2="430"
         id="line173"
         style="fill:none;stroke:#000000;stroke-width:10;stroke-linecap:round" />
      <path
         d="m 220,330 a 20,20 0 0 1 20,20"
         id="path175"
         style="fill:none;stroke:#000000;stroke-width:10;stroke-linecap:round" />
      <path
         d="M 320,430"
         id="path177"
         style="fill:none;stroke:#000000;stroke-width:10;stroke-linecap:round" />
      <line
         x1="260"
         x2="260"
         y1="190"
         y2="150"
         id="line179"
         style="fill:none;stroke:#000000;stroke-width:10;stroke-linecap:round" />
      <path
         d="M 260,150 A 100,100 0 0 1 360,50"
         id="path181"
         style="fill:none;stroke:#000000;stroke-width:10;stroke-linecap:round" />
      <path
         d="M 360,50 A 100,100 0 0 1 460,150"
         id="path183"
         style="fill:none;stroke:#000000;stroke-width:10;stroke-linecap:round" />
      <line
         x1="160"
         x2="360"
         y1="310"
         y2="310"
         id="line185"
         style="fill:none;stroke:#000000;stroke-width:10;stroke-linecap:round" />
    </g>
  </g>
</svg>
